<?xml version="1.0" encoding="UTF-8" standalone="no"?>
<svg
   xmlns:dc="http://purl.org/dc/elements/1.1/"
   xmlns:cc="http://creativecommons.org/ns#"
   xmlns:rdf="http://www.w3.org/1999/02/22-rdf-syntax-ns#"
   xmlns:svg="http://www.w3.org/2000/svg"
   xmlns="http://www.w3.org/2000/svg"
   xmlns:sodipodi="http://sodipodi.sourceforge.net/DTD/sodipodi-0.dtd"
   xmlns:inkscape="http://www.inkscape.org/namespaces/inkscape"
   height="24px"
   viewBox="0 0 24 24"
   width="24px"
   fill="#000000"
   version="1.1"
   id="svg6"
   sodipodi:docname="3d.svg"
   inkscape:version="0.92.2 (5c3e80d, 2017-08-06)">
  <metadata
     id="metadata12">
    <rdf:RDF>
      <cc:Work
         rdf:about="">
        <dc:format>image/svg+xml</dc:format>
        <dc:type
           rdf:resource="http://purl.org/dc/dcmitype/StillImage" />
      </cc:Work>
    </rdf:RDF>
  </metadata>
  <defs
     id="defs10" />
  <sodipodi:namedview
     pagecolor="#ffffff"
     bordercolor="#666666"
     borderopacity="1"
     objecttolerance="10"
     gridtolerance="10"
     guidetolerance="10"
     inkscape:pageopacity="0"
     inkscape:pageshadow="2"
     inkscape:window-width="1268"
     inkscape:window-height="1395"
     id="namedview8"
     showgrid="false"
     inkscape:zoom="9.8333333"
     inkscape:cx="12.20339"
     inkscape:cy="12"
     inkscape:window-x="5"
     inkscape:window-y="38"
     inkscape:window-maximized="0"
     inkscape:current-layer="svg6" />
  <path
     d="M7.52 21.48C4.25 19.94 1.91 16.76 1.55 13H.05C.56 19.16 5.71 24 12 24l.66-.03-3.81-3.81-1.33 1.32zm.89-6.52c-.19 0-.37-.03-.52-.08-.16-.06-.29-.13-.4-.24-.11-.1-.2-.22-.26-.37-.06-.14-.09-.3-.09-.47h-1.3c0 .36.07.68.21.95.14.27.33.5.56.69.24.18.51.32.82.41.3.1.62.15.96.15.37 0 .72-.05 1.03-.15.32-.1.6-.25.83-.44s.42-.43.55-.72c.13-.29.2-.61.2-.97 0-.19-.02-.38-.07-.56-.05-.18-.12-.35-.23-.51-.1-.16-.24-.3-.4-.43-.17-.13-.37-.23-.61-.31.2-.09.37-.2.52-.33.15-.13.27-.27.37-.42.1-.15.17-.3.22-.46.05-.16.07-.32.07-.48 0-.36-.06-.68-.18-.96-.12-.28-.29-.51-.51-.69-.2-.19-.47-.33-.77-.43C9.1 8.05 8.76 8 8.39 8c-.36 0-.69.05-1 .16-.3.11-.57.26-.79.45-.21.19-.38.41-.51.67-.12.26-.18.54-.18.85h1.3c0-.17.03-.32.09-.45s.14-.25.25-.34c.11-.09.23-.17.38-.22.15-.05.3-.08.48-.08.4 0 .7.1.89.31.19.2.29.49.29.86 0 .18-.03.34-.08.49-.05.15-.14.27-.25.37-.11.1-.25.18-.41.24-.16.06-.36.09-.58.09H7.5v1.03h.77c.22 0 .42.02.6.07s.33.13.45.23c.12.11.22.24.29.4.07.16.1.35.1.57 0 .41-.12.72-.35.93-.23.23-.55.33-.95.33zm8.55-5.92c-.32-.33-.7-.59-1.14-.77-.43-.18-.92-.27-1.46-.27H12v8h2.3c.55 0 1.06-.09 1.51-.27.45-.18.84-.43 1.16-.76.32-.33.57-.73.74-1.19.17-.47.26-.99.26-1.57v-.4c0-.58-.09-1.1-.26-1.57-.18-.47-.43-.87-.75-1.2zm-.39 3.16c0 .42-.05.79-.14 1.13-.1.33-.24.62-.43.85-.19.23-.43.41-.71.53-.29.12-.62.18-.99.18h-.91V9.12h.97c.72 0 1.27.23 1.64.69.38.46.57 1.12.57 1.99v.4zM12 0l-.66.03 3.81 3.81 1.33-1.33c3.27 1.55 5.61 4.72 5.96 8.48h1.5C23.44 4.84 18.29 0 12 0z"
     id="path4"
     style="fill:none" />
</svg>
