<?xml version="1.0" encoding="UTF-8" standalone="no"?>
<svg
   xmlns:dc="http://purl.org/dc/elements/1.1/"
   xmlns:cc="http://creativecommons.org/ns#"
   xmlns:rdf="http://www.w3.org/1999/02/22-rdf-syntax-ns#"
   xmlns:svg="http://www.w3.org/2000/svg"
   xmlns="http://www.w3.org/2000/svg"
   xmlns:sodipodi="http://sodipodi.sourceforge.net/DTD/sodipodi-0.dtd"
   xmlns:inkscape="http://www.inkscape.org/namespaces/inkscape"
   enable-background="new 0 0 24 24"
   height="24px"
   viewBox="0 0 24 24"
   width="24px"
   fill="#000000"
   version="1.1"
   id="svg6"
   sodipodi:docname="clone.svg"
   inkscape:version="0.92.2 (5c3e80d, 2017-08-06)">
  <metadata
     id="metadata12">
    <rdf:RDF>
      <cc:Work
         rdf:about="">
        <dc:format>image/svg+xml</dc:format>
        <dc:type
           rdf:resource="http://purl.org/dc/dcmitype/StillImage" />
      </cc:Work>
    </rdf:RDF>
  </metadata>
  <defs
     id="defs10" />
  <sodipodi:namedview
     pagecolor="#ffffff"
     bordercolor="#666666"
     borderopacity="1"
     objecttolerance="10"
     gridtolerance="10"
     guidetolerance="10"
     inkscape:pageopacity="0"
     inkscape:pageshadow="2"
     inkscape:window-width="948"
     inkscape:window-height="1035"
     id="namedview8"
     showgrid="false"
     inkscape:zoom="9.8333333"
     inkscape:cx="2.9226646"
     inkscape:cy="-3.322521"
     inkscape:window-x="5"
     inkscape:window-y="38"
     inkscape:window-maximized="0"
     inkscape:current-layer="svg6" />
  <path
     d="M18,2H9C7.9,2,7,2.9,7,4v12c0,1.1,0.9,2,2,2h9c1.1,0,2-0.9,2-2V4C20,2.9,19.1,2,18,2z M18,16H9V4h9V16z M3,15v-2h2v2H3z M3,9.5h2v2H3V9.5z M10,20h2v2h-2V20z M3,18.5v-2h2v2H3z M5,22c-1.1,0-2-0.9-2-2h2V22z M8.5,22h-2v-2h2V22z M13.5,22L13.5,22l0-2h2 v0C15.5,21.1,14.6,22,13.5,22z M5,6L5,6l0,2H3v0C3,6.9,3.9,6,5,6z"
     id="path4"
     style="fill:none" />
</svg>
