<?xml version="1.0" encoding="UTF-8" standalone="no"?>
<svg
   xmlns:dc="http://purl.org/dc/elements/1.1/"
   xmlns:cc="http://creativecommons.org/ns#"
   xmlns:rdf="http://www.w3.org/1999/02/22-rdf-syntax-ns#"
   xmlns:svg="http://www.w3.org/2000/svg"
   xmlns="http://www.w3.org/2000/svg"
   xmlns:sodipodi="http://sodipodi.sourceforge.net/DTD/sodipodi-0.dtd"
   xmlns:inkscape="http://www.inkscape.org/namespaces/inkscape"
   height="24px"
   viewBox="0 0 24 24"
   width="24px"
   fill="#000000"
   version="1.1"
   id="svg10"
   sodipodi:docname="cut.svg"
   inkscape:version="0.92.2 (5c3e80d, 2017-08-06)">
  <metadata
     id="metadata16">
    <rdf:RDF>
      <cc:Work
         rdf:about="">
        <dc:format>image/svg+xml</dc:format>
        <dc:type
           rdf:resource="http://purl.org/dc/dcmitype/StillImage" />
      </cc:Work>
    </rdf:RDF>
  </metadata>
  <defs
     id="defs14" />
  <sodipodi:namedview
     pagecolor="#ffffff"
     bordercolor="#666666"
     borderopacity="1"
     objecttolerance="10"
     gridtolerance="10"
     guidetolerance="10"
     inkscape:pageopacity="0"
     inkscape:pageshadow="2"
     inkscape:window-width="948"
     inkscape:window-height="1035"
     id="namedview12"
     showgrid="false"
     inkscape:zoom="19.666667"
     inkscape:cx="11.388183"
     inkscape:cy="18.66386"
     inkscape:window-x="5"
     inkscape:window-y="38"
     inkscape:window-maximized="0"
     inkscape:current-layer="svg10" />
  <path
     d="m 9.3857633,7.6908475 c 0.23,-0.5 0.36,-1.05 0.36,-1.64 0,-2.2100003 -1.79,-4.0000003 -4.0000004,-4.0000003 -2.2100002,0 -4.0000002,1.79 -4.0000002,4.0000003 0,2.21 1.79,4.0000005 4.0000002,4.0000005 0.5900004,0 1.1400004,-0.1300005 1.6400004,-0.3600005 l 2.36,2.3599995 -2.36,2.36 c -0.5,-0.23 -1.05,-0.36 -1.6400004,-0.36 -2.2100002,0 -4.0000002,1.79 -4.0000002,4 0,2.21 1.79,4 4.0000002,4 2.2100004,0 4.0000004,-1.79 4.0000004,-4 0,-0.59 -0.13,-1.14 -0.36,-1.64 l 2.3599997,-2.36 7,7 h 3 v -1 z m -3.6400004,0.36 c -1.1000002,0 -2.0000002,-0.89 -2.0000002,-2 0,-1.1100003 0.9,-2.0000003 2.0000002,-2.0000003 1.1000004,0 2.0000004,0.89 2.0000004,2.0000003 0,1.11 -0.9,2 -2.0000004,2 z m 0,11.9999995 c -1.1000002,0 -2.0000002,-0.89 -2.0000002,-2 0,-1.11 0.9,-2 2.0000002,-2 1.1000004,0 2.0000004,0.89 2.0000004,2 0,1.11 -0.9,2 -2.0000004,2 z m 6.0000001,-7.5 c -0.28,0 -0.5,-0.22 -0.5,-0.5 0,-0.28 0.22,-0.499999 0.5,-0.499999 0.28,0 0.5,0.219999 0.5,0.499999 0,0.28 -0.22,0.5 -0.5,0.5 z m 7,-9.4999998 -6,6.0000003 2,2.0000005 7,-7.0000008 v -1 z"
     id="path8"
     style="fill:none"
     inkscape:connector-curvature="0" />
</svg>
