<?xml version="1.0" encoding="UTF-8" standalone="no"?>
<svg
   xmlns:dc="http://purl.org/dc/elements/1.1/"
   xmlns:cc="http://creativecommons.org/ns#"
   xmlns:rdf="http://www.w3.org/1999/02/22-rdf-syntax-ns#"
   xmlns:svg="http://www.w3.org/2000/svg"
   xmlns="http://www.w3.org/2000/svg"
   xmlns:sodipodi="http://sodipodi.sourceforge.net/DTD/sodipodi-0.dtd"
   xmlns:inkscape="http://www.inkscape.org/namespaces/inkscape"
   height="24px"
   viewBox="0 0 24 24"
   width="24px"
   fill="#000000"
   version="1.1"
   id="svg6"
   sodipodi:docname="disable.svg"
   inkscape:version="0.92.2 (5c3e80d, 2017-08-06)">
  <metadata
     id="metadata12">
    <rdf:RDF>
      <cc:Work
         rdf:about="">
        <dc:format>image/svg+xml</dc:format>
        <dc:type
           rdf:resource="http://purl.org/dc/dcmitype/StillImage" />
      </cc:Work>
    </rdf:RDF>
  </metadata>
  <defs
     id="defs10" />
  <sodipodi:namedview
     pagecolor="#ffffff"
     bordercolor="#666666"
     borderopacity="1"
     objecttolerance="10"
     gridtolerance="10"
     guidetolerance="10"
     inkscape:pageopacity="0"
     inkscape:pageshadow="2"
     inkscape:window-width="948"
     inkscape:window-height="1035"
     id="namedview8"
     showgrid="false"
     inkscape:zoom="9.8333333"
     inkscape:cx="12.40678"
     inkscape:cy="12"
     inkscape:window-x="5"
     inkscape:window-y="38"
     inkscape:window-maximized="0"
     inkscape:current-layer="svg6" />
  <path
     d="M16 7l3.55 5-1.63 2.29 1.43 1.43L22 12l-4.37-6.16C17.27 5.33 16.67 5 16 5l-7.37.01 2 1.99H16zM2 4.03l1.58 1.58C3.22 5.96 3 6.46 3 7v10c0 1.1.9 1.99 2 1.99L16 19c.28 0 .55-.07.79-.18L18.97 21l1.41-1.41L3.41 2.62 2 4.03zM14.97 17H5V7.03L14.97 17z"
     id="path4"
     style="fill:none" />
</svg>
