<?xml version="1.0" encoding="UTF-8" standalone="no"?>
<!-- Generator: Adobe Illustrator 16.0.0, SVG Export Plug-In . SVG Version: 6.00 Build 0)  -->

<svg
   xmlns:dc="http://purl.org/dc/elements/1.1/"
   xmlns:cc="http://creativecommons.org/ns#"
   xmlns:rdf="http://www.w3.org/1999/02/22-rdf-syntax-ns#"
   xmlns:svg="http://www.w3.org/2000/svg"
   xmlns="http://www.w3.org/2000/svg"
   xmlns:sodipodi="http://sodipodi.sourceforge.net/DTD/sodipodi-0.dtd"
   xmlns:inkscape="http://www.inkscape.org/namespaces/inkscape"
   version="1.1"
   id="Capa_1"
   x="0px"
   y="0px"
   width="870px"
   height="870px"
   viewBox="0 0 870 870"
   style="enable-background:new 0 0 870 870;"
   xml:space="preserve"
   sodipodi:docname="disk.svg"
   inkscape:version="0.92.2 (5c3e80d, 2017-08-06)"><metadata
     id="metadata45"><rdf:RDF><cc:Work
         rdf:about=""><dc:format>image/svg+xml</dc:format><dc:type
           rdf:resource="http://purl.org/dc/dcmitype/StillImage" /></cc:Work></rdf:RDF></metadata><defs
     id="defs43" /><sodipodi:namedview
     pagecolor="#ffffff"
     bordercolor="#666666"
     borderopacity="1"
     objecttolerance="10"
     gridtolerance="10"
     guidetolerance="10"
     inkscape:pageopacity="0"
     inkscape:pageshadow="2"
     inkscape:window-width="948"
     inkscape:window-height="1035"
     id="namedview41"
     showgrid="false"
     inkscape:zoom="0.27126437"
     inkscape:cx="486.61017"
     inkscape:cy="-169.57627"
     inkscape:window-x="5"
     inkscape:window-y="38"
     inkscape:window-maximized="0"
     inkscape:current-layer="Capa_1" /><g
     id="g8"
     style="fill:none"><g
       id="g6"
       style="fill:none"><path
         d="M180,870h510c27.6,0,50-22.4,50-50V50c0-27.6-22.4-50-50-50H180c-27.6,0-50,22.4-50,50v770C130,847.6,152.4,870,180,870z     M653.9,808.6c-16.601,0-30-13.399-30-30c0-16.6,13.399-30,30-30c16.6,0,30,13.4,30,30C683.9,795.2,670.5,808.6,653.9,808.6z     M653.9,68c16.6,0,30,13.4,30,30s-13.4,30-30,30c-16.601,0-30-13.4-30-30S637.3,68,653.9,68z M435,90.4    c129.6,0,234.7,105.1,234.7,234.7S564.6,559.8,435,559.8c-20.4,0-40.2-2.6-59.1-7.5l44.1-74.8c13.1-22.2-12-47.4-34.2-34.2    l-102.3,60.3c-0.2,0.101-0.3,0.2-0.4,0.301c-50.6-43-82.7-107.2-82.7-178.8C200.3,195.5,305.4,90.4,435,90.4z M222.1,68    c16.6,0,30,13.4,30,30s-13.399,30-30,30s-30-13.4-30-30S205.5,68,222.1,68z M222.1,748.6c16.6,0,30,13.4,30,30    c0,16.601-13.399,30-30,30s-30-13.399-30-30C192.1,762.1,205.5,748.6,222.1,748.6z"
         id="path2"
         style="fill:none" /><circle
         cx="435"
         cy="325.1"
         r="62.7"
         id="circle4"
         style="fill:none" /></g></g><g
     id="g10" /><g
     id="g12" /><g
     id="g14" /><g
     id="g16" /><g
     id="g18" /><g
     id="g20" /><g
     id="g22" /><g
     id="g24" /><g
     id="g26" /><g
     id="g28" /><g
     id="g30" /><g
     id="g32" /><g
     id="g34" /><g
     id="g36" /><g
     id="g38" /></svg>