<?xml version="1.0" encoding="UTF-8" standalone="no"?>
<svg
   xmlns:dc="http://purl.org/dc/elements/1.1/"
   xmlns:cc="http://creativecommons.org/ns#"
   xmlns:rdf="http://www.w3.org/1999/02/22-rdf-syntax-ns#"
   xmlns:svg="http://www.w3.org/2000/svg"
   xmlns="http://www.w3.org/2000/svg"
   xmlns:sodipodi="http://sodipodi.sourceforge.net/DTD/sodipodi-0.dtd"
   xmlns:inkscape="http://www.inkscape.org/namespaces/inkscape"
   enable-background="new 0 0 24 24"
   height="24px"
   viewBox="0 0 24 24"
   width="24px"
   fill="#000000"
   version="1.1"
   id="svg14"
   sodipodi:docname="drag.svg"
   inkscape:version="0.92.2 (5c3e80d, 2017-08-06)">
  <metadata
     id="metadata20">
    <rdf:RDF>
      <cc:Work
         rdf:about="">
        <dc:format>image/svg+xml</dc:format>
        <dc:type
           rdf:resource="http://purl.org/dc/dcmitype/StillImage" />
      </cc:Work>
    </rdf:RDF>
  </metadata>
  <defs
     id="defs18" />
  <sodipodi:namedview
     pagecolor="#ffffff"
     bordercolor="#666666"
     borderopacity="1"
     objecttolerance="10"
     gridtolerance="10"
     guidetolerance="10"
     inkscape:pageopacity="0"
     inkscape:pageshadow="2"
     inkscape:window-width="1268"
     inkscape:window-height="1395"
     id="namedview16"
     showgrid="false"
     inkscape:zoom="9.8333333"
     inkscape:cx="-7.220339"
     inkscape:cy="7.5254237"
     inkscape:window-x="5"
     inkscape:window-y="38"
     inkscape:window-maximized="0"
     inkscape:current-layer="svg14" />
  <g
     id="g12"
     style="fill:none"
     transform="matrix(0.78274268,0,0,0.80932203,1.4375963,2.0338983)">
    <g
       id="g10"
       style="fill:none">
      <g
         id="g8"
         style="fill:none">
        <path
           d="M 23,5.5 V 20 c 0,2.2 -1.8,4 -4,4 H 11.7 C 10.62,24 9.6,23.57 8.85,22.81 L 1,14.83 c 0,0 1.26,-1.23 1.3,-1.25 0.22,-0.19 0.49,-0.29 0.79,-0.29 0.22,0 0.42,0.06 0.6,0.16 C 3.73,13.46 8,15.91 8,15.91 V 4 C 8,3.17 8.67,2.5 9.5,2.5 10.33,2.5 11,3.17 11,4 v 7 h 1 V 1.5 C 12,0.67 12.67,0 13.5,0 14.33,0 15,0.67 15,1.5 V 11 h 1 V 2.5 C 16,1.67 16.67,1 17.5,1 18.33,1 19,1.67 19,2.5 V 11 h 1 V 5.5 C 20,4.67 20.67,4 21.5,4 22.33,4 23,4.67 23,5.5 Z"
           id="path6"
           style="fill:none"
           inkscape:connector-curvature="0" />
      </g>
    </g>
  </g>
</svg>
