<?xml version="1.0" encoding="UTF-8" standalone="no"?>
<svg
   xmlns:dc="http://purl.org/dc/elements/1.1/"
   xmlns:cc="http://creativecommons.org/ns#"
   xmlns:rdf="http://www.w3.org/1999/02/22-rdf-syntax-ns#"
   xmlns:svg="http://www.w3.org/2000/svg"
   xmlns="http://www.w3.org/2000/svg"
   id="svg4"
   version="1.1"
   width="24"
   viewBox="0 0 24 24"
   height="24">
  <metadata
     id="metadata10">
    <rdf:RDF>
      <cc:Work
         rdf:about="">
        <dc:format>image/svg+xml</dc:format>
        <dc:type
           rdf:resource="http://purl.org/dc/dcmitype/StillImage" />
        <dc:title></dc:title>
      </cc:Work>
    </rdf:RDF>
  </metadata>
  <defs
     id="defs8" />
  <path
     style="fill:none"
     id="path2"
     d="M 15,1 H 9 v 2 h 6 z m 4.03,6.39 1.42,-1.42 C 20.02,5.46 19.55,4.98 19.04,4.56 L 17.62,5.98 C 16.07,4.74 14.12,4 12,4 7.03,4 3,8.03 3,13 c 0,4.97 4.02,9 9,9 4.98,0 9,-4.03 9,-9 0,-2.12 -0.74,-4.07 -1.97,-5.61 z M 12,20 C 8.13,20 5,16.87 5,13 5,9.13 8.13,6 12,6 c 3.87,0 7,3.13 7,7 0,3.87 -3.13,7 -7,7 z" />
  <rect
     y="8.9491529"
     x="8.7457628"
     height="7.4237289"
     width="2.2372882"
     id="rect817"
     style="fill:none;fill-opacity:1;stroke:none;stroke-opacity:1" />
  <rect
     style="fill:none;fill-opacity:1;stroke:none;stroke-opacity:1"
     id="rect819"
     width="2.2372882"
     height="7.4237289"
     x="12.745763"
     y="8.9491529" />
</svg>
