<?xml version="1.0" encoding="UTF-8" standalone="no"?>
<svg
   xmlns:dc="http://purl.org/dc/elements/1.1/"
   xmlns:cc="http://creativecommons.org/ns#"
   xmlns:rdf="http://www.w3.org/1999/02/22-rdf-syntax-ns#"
   xmlns:svg="http://www.w3.org/2000/svg"
   xmlns="http://www.w3.org/2000/svg"
   xmlns:sodipodi="http://sodipodi.sourceforge.net/DTD/sodipodi-0.dtd"
   xmlns:inkscape="http://www.inkscape.org/namespaces/inkscape"
   height="24px"
   viewBox="0 0 24 24"
   width="24px"
   fill="#000000"
   version="1.1"
   id="svg8"
   sodipodi:docname="generate_keys.svg"
   inkscape:version="0.92.2 (5c3e80d, 2017-08-06)">
  <metadata
     id="metadata14">
    <rdf:RDF>
      <cc:Work
         rdf:about="">
        <dc:format>image/svg+xml</dc:format>
        <dc:type
           rdf:resource="http://purl.org/dc/dcmitype/StillImage" />
      </cc:Work>
    </rdf:RDF>
  </metadata>
  <defs
     id="defs12" />
  <sodipodi:namedview
     pagecolor="#ffffff"
     bordercolor="#666666"
     borderopacity="1"
     objecttolerance="10"
     gridtolerance="10"
     guidetolerance="10"
     inkscape:pageopacity="0"
     inkscape:pageshadow="2"
     inkscape:window-width="1268"
     inkscape:window-height="1395"
     id="namedview10"
     showgrid="false"
     inkscape:zoom="9.8333333"
     inkscape:cx="4.8650978"
     inkscape:cy="13.627119"
     inkscape:window-x="5"
     inkscape:window-y="38"
     inkscape:window-maximized="0"
     inkscape:current-layer="svg8" />
  <path
     d="m 15,2.3050846 c -2.71,0 -5.0499999,1.54 -6.2199999,3.78 -1.28,0.67 -2.34,1.72 -3,3 -2.24,1.1700004 -3.78,3.5100004 -3.78,6.2200004 0,3.87 3.13,7 7,7 2.7099999,0 5.0499999,-1.54 6.2199999,-3.78 1.28,-0.67 2.34,-1.72 3,-3 2.24,-1.17 3.78,-3.51 3.78,-6.2200004 0,-3.87 -3.13,-7 -7,-7 z M 9.0000001,20.305085 c -2.76,0 -5,-2.24 -5,-5 0,-1.12 0.37,-2.16 1,-3 0,3.87 3.13,7 6.9999999,7 -0.84,0.63 -1.88,1 -2.9999999,1 z m 2.9999999,-3 c -2.7599999,0 -4.9999999,-2.24 -4.9999999,-5 0,-1.12 0.37,-2.16 1,-3.0000004 0,3.8600004 3.1299999,6.9900004 6.9999999,7.0000004 -0.84,0.63 -1.88,1 -3,1 z m 4.7,-3.3 c -0.53,0.19 -1.1,0.3 -1.7,0.3 -2.76,0 -5,-2.24 -5,-5.0000004 0,-0.6 0.11,-1.17 0.3,-1.7 0.53,-0.19 1.1,-0.3 1.7,-0.3 2.76,0 5,2.24 5,5.0000004 0,0.6 -0.11,1.17 -0.3,1.7 z m 2.3,-1.7 c 0,-3.8600004 -3.13,-6.9900004 -7,-7.0000004 0.84,-0.63 1.87,-1 3,-1 2.76,0 5,2.24 5,5 0,1.1200004 -0.37,2.1600004 -1,3.0000004 z"
     id="path4"
     style="fill:none"
     inkscape:connector-curvature="0" />
</svg>
