<?xml version="1.0" encoding="UTF-8" standalone="no"?>
<svg
   xmlns:dc="http://purl.org/dc/elements/1.1/"
   xmlns:cc="http://creativecommons.org/ns#"
   xmlns:rdf="http://www.w3.org/1999/02/22-rdf-syntax-ns#"
   xmlns:svg="http://www.w3.org/2000/svg"
   xmlns="http://www.w3.org/2000/svg"
   xmlns:sodipodi="http://sodipodi.sourceforge.net/DTD/sodipodi-0.dtd"
   xmlns:inkscape="http://www.inkscape.org/namespaces/inkscape"
   height="24px"
   viewBox="0 0 24 24"
   width="24px"
   fill="#000000"
   version="1.1"
   id="svg6"
   sodipodi:docname="reload_plugin.svg"
   inkscape:version="0.92.2 (5c3e80d, 2017-08-06)">
  <metadata
     id="metadata12">
    <rdf:RDF>
      <cc:Work
         rdf:about="">
        <dc:format>image/svg+xml</dc:format>
        <dc:type
           rdf:resource="http://purl.org/dc/dcmitype/StillImage" />
      </cc:Work>
    </rdf:RDF>
  </metadata>
  <defs
     id="defs10" />
  <sodipodi:namedview
     pagecolor="#ffffff"
     bordercolor="#666666"
     borderopacity="1"
     objecttolerance="10"
     gridtolerance="10"
     guidetolerance="10"
     inkscape:pageopacity="0"
     inkscape:pageshadow="2"
     inkscape:window-width="1268"
     inkscape:window-height="1395"
     id="namedview8"
     showgrid="false"
     inkscape:zoom="13.906433"
     inkscape:cx="3.0770423"
     inkscape:cy="1.2645943"
     inkscape:window-x="5"
     inkscape:window-y="38"
     inkscape:window-maximized="0"
     inkscape:current-layer="svg6" />
  <g
     style="fill:none"
     id="g3725"
     transform="matrix(0.90809113,0,0,0.90809113,1.380955,0.95066803)">
    <path
       id="path4-7"
       style="fill:none"
       d="M 20.5,11 H 19 V 7 C 19,5.9 18.1,5 17,5 H 13 V 3.5 C 13,2.12 11.88,1 10.5,1 9.12,1 8,2.12 8,3.5 V 5 H 4 C 2.9,5 2.01,5.9 2.01,7 v 3.8 H 3.5 c 1.49,0 2.7,1.21 2.7,2.7 0,1.49 -1.21,2.7 -2.7,2.7 H 2 V 20 c 0,1.1 0.9,2 2,2 h 3.8 v -1.5 c 0,-1.49 1.21,-2.7 2.7,-2.7 1.49,0 2.7,1.21 2.7,2.7 V 22 H 17 c 1.1,0 2,-0.9 2,-2 v -4 h 1.5 C 21.88,16 23,14.88 23,13.5 23,12.12 21.88,11 20.5,11 Z"
       inkscape:connector-curvature="0" />
  </g>
</svg>
