<?xml version="1.0" encoding="UTF-8" standalone="no"?>
<svg
   xmlns:dc="http://purl.org/dc/elements/1.1/"
   xmlns:cc="http://creativecommons.org/ns#"
   xmlns:rdf="http://www.w3.org/1999/02/22-rdf-syntax-ns#"
   xmlns:svg="http://www.w3.org/2000/svg"
   xmlns="http://www.w3.org/2000/svg"
   xmlns:sodipodi="http://sodipodi.sourceforge.net/DTD/sodipodi-0.dtd"
   xmlns:inkscape="http://www.inkscape.org/namespaces/inkscape"
   enable-background="new 0 0 24 24"
   height="24px"
   viewBox="0 0 24 24"
   width="24px"
   fill="#000000"
   version="1.1"
   id="svg14"
   sodipodi:docname="restart.svg"
   inkscape:version="0.92.2 (5c3e80d, 2017-08-06)">
  <metadata
     id="metadata20">
    <rdf:RDF>
      <cc:Work
         rdf:about="">
        <dc:format>image/svg+xml</dc:format>
        <dc:type
           rdf:resource="http://purl.org/dc/dcmitype/StillImage" />
      </cc:Work>
    </rdf:RDF>
  </metadata>
  <defs
     id="defs18" />
  <sodipodi:namedview
     pagecolor="#ffffff"
     bordercolor="#666666"
     borderopacity="1"
     objecttolerance="10"
     gridtolerance="10"
     guidetolerance="10"
     inkscape:pageopacity="0"
     inkscape:pageshadow="2"
     inkscape:window-width="1268"
     inkscape:window-height="1395"
     id="namedview16"
     showgrid="false"
     inkscape:zoom="9.8333333"
     inkscape:cx="4.6779661"
     inkscape:cy="12"
     inkscape:window-x="5"
     inkscape:window-y="38"
     inkscape:window-maximized="0"
     inkscape:current-layer="svg14" />
  <g
     id="g12"
     style="fill:none">
    <g
       id="g10"
       style="fill:none">
      <path
         d="M12,5V2L8,6l4,4V7c3.31,0,6,2.69,6,6c0,2.97-2.17,5.43-5,5.91v2.02c3.95-0.49,7-3.85,7-7.93C20,8.58,16.42,5,12,5z"
         id="path6"
         style="fill:none" />
      <path
         d="M6,13c0-1.65,0.67-3.15,1.76-4.24L6.34,7.34C4.9,8.79,4,10.79,4,13c0,4.08,3.05,7.44,7,7.93v-2.02 C8.17,18.43,6,15.97,6,13z"
         id="path8"
         style="fill:none" />
    </g>
  </g>
</svg>
