<?xml version="1.0" encoding="UTF-8" standalone="no"?>
<svg
   xmlns:dc="http://purl.org/dc/elements/1.1/"
   xmlns:cc="http://creativecommons.org/ns#"
   xmlns:rdf="http://www.w3.org/1999/02/22-rdf-syntax-ns#"
   xmlns:svg="http://www.w3.org/2000/svg"
   xmlns="http://www.w3.org/2000/svg"
   id="svg6"
   version="1.1"
   width="24"
   viewBox="0 0 24 24"
   height="24">
  <metadata
     id="metadata12">
    <rdf:RDF>
      <cc:Work
         rdf:about="">
        <dc:format>image/svg+xml</dc:format>
        <dc:type
           rdf:resource="http://purl.org/dc/dcmitype/StillImage" />
        <dc:title></dc:title>
      </cc:Work>
    </rdf:RDF>
  </metadata>
  <defs
     id="defs10" />
  <path
     id="path2"
     d="M-74 29h48v48h-48V29z"
     fill="none" />
  <path
     style="fill:none"
     id="path4"
     d="M20 5h-3.2L15 3H9L7.2 5H4c-1.1 0-2 .9-2 2v12c0 1.1.9 2 2 2h16c1.1 0 2-.9 2-2V7c0-1.1-.9-2-2-2zm0 14h-8v-1c-2.8 0-5-2.2-5-5s2.2-5 5-5V7h8v12zm-3-6c0-2.8-2.2-5-5-5v1.8c1.8 0 3.2 1.4 3.2 3.2s-1.4 3.2-3.2 3.2V18c2.8 0 5-2.2 5-5zm-8.2 0c0 1.8 1.4 3.2 3.2 3.2V9.8c-1.8 0-3.2 1.4-3.2 3.2z" />
</svg>
