<?xml version="1.0" encoding="UTF-8" standalone="no"?>
<svg
   xmlns:dc="http://purl.org/dc/elements/1.1/"
   xmlns:cc="http://creativecommons.org/ns#"
   xmlns:rdf="http://www.w3.org/1999/02/22-rdf-syntax-ns#"
   xmlns:svg="http://www.w3.org/2000/svg"
   xmlns="http://www.w3.org/2000/svg"
   id="svg4"
   version="1.1"
   width="24"
   viewBox="0 0 24 24"
   height="24">
  <metadata
     id="metadata10">
    <rdf:RDF>
      <cc:Work
         rdf:about="">
        <dc:format>image/svg+xml</dc:format>
        <dc:type
           rdf:resource="http://purl.org/dc/dcmitype/StillImage" />
        <dc:title></dc:title>
      </cc:Work>
    </rdf:RDF>
  </metadata>
  <defs
     id="defs8" />
  <text
     transform="scale(0.88653897,1.127982)"
     id="text819"
     y="-18.582329"
     x="1.2315291"
     style="font-style:normal;font-weight:normal;font-size:12.86299419px;line-height:1.25;font-family:sans-serif;letter-spacing:0px;word-spacing:0px;fill:none;fill-opacity:1;stroke:none;stroke-width:0.32157487;"
     xml:space="preserve"><tspan
       style="font-style:normal;font-variant:normal;font-weight:normal;font-stretch:normal;font-size:12.86299419px;font-family:sans-serif;-inkscape-font-specification:'sans-serif, Normal';font-variant-ligatures:normal;font-variant-caps:normal;font-variant-numeric:normal;font-feature-settings:normal;text-align:start;writing-mode:lr-tb;text-anchor:start;fill:none;stroke-width:0.32157487;"
       y="-7.2015939"
       x="1.2315291"
       id="tspan817"></tspan><tspan
       id="tspan869"
       style="font-style:normal;font-variant:normal;font-weight:normal;font-stretch:normal;font-size:12.86299419px;font-family:sans-serif;-inkscape-font-specification:'sans-serif, Normal';font-variant-ligatures:normal;font-variant-caps:normal;font-variant-numeric:normal;font-feature-settings:normal;text-align:start;writing-mode:lr-tb;text-anchor:start;fill:none;stroke-width:0.32157487;"
       y="8.8771486"
       x="1.2315291">รท </tspan></text>
  <g
     style="fill:none"
     id="layer1"
     transform="matrix(0.08077841,0,0,0.07661437,-22.062869,-42.487477)">
    <g
       aria-label="ฮฑ"
       style="font-style:normal;font-weight:normal;line-height:0%;font-family:'Times New Roman';text-align:start;text-anchor:start;fill:none;fill-opacity:1;stroke:none;stroke-width:1px;stroke-linecap:butt;stroke-linejoin:miter;stroke-opacity:1"
       id="text5540">
      <path
         d="m 500.18427,661.46143 h 33.20312 l -20.11719,90.42968 q -5.85937,25.78125 -8.00781,31.64063 7.8125,35.9375 22.65625,35.9375 17.57813,0 18.16406,-24.21875 h 7.03125 q -0.58593,22.65625 -8.39843,36.71875 -7.61719,13.86719 -20.11719,13.86719 -10.35156,0 -15.42969,-8.39844 -5.07812,-8.39844 -10.9375,-34.375 -20.3125,42.77344 -66.40625,42.77344 -31.44531,0 -50,-24.41407 -18.55469,-24.60937 -18.55469,-70.3125 0,-44.92187 20.3125,-69.92187 20.3125,-25 48.82813,-25 20.11719,0 33.00781,14.25781 12.89063,14.25781 22.85156,46.48438 z m -17.1875,76.5625 q -9.17969,-31.44532 -20.50782,-49.02344 -11.32812,-17.77344 -27.14843,-17.77344 -35.74219,0 -35.74219,83.59375 0,79.29688 34.17969,79.29688 29.6875,0 43.94531,-69.92188 z"
         style="font-size:400px;line-height:1.25;text-align:center;text-anchor:middle;fill:none"
         id="path814" />
    </g>
  </g>
</svg>
